<?xml version="1.0" encoding="utf-8"?>
<!-- Generator: Adobe Illustrator 20.0.0, SVG Export Plug-In . SVG Version: 6.00 Build 0)  -->
<svg version="1.1" id="Слой_1" xmlns="http://www.w3.org/2000/svg" xmlns:xlink="http://www.w3.org/1999/xlink" x="0px" y="0px"
	 viewBox="0 0 30 30" width="30px" height="30px" style="enable-background:new 0 0 30 30;" xml:space="preserve">
<style type="text/css">
	.st0{fill:#242933;}
</style>
<g>
	<path class="st0" d="M15,0C6.7,0,0,6.7,0,15s6.7,15,15,15s15-6.7,15-15S23.3,0,15,0z M23.9,23.9c-1.2,1.2-2.5,2.1-4,2.7
		c-0.4,0.2-0.8,0.3-1.2,0.4v-2.2c0-1.2-0.4-2.1-1.2-2.6c0.5,0,1-0.1,1.4-0.2s0.9-0.2,1.3-0.4c0.5-0.2,0.9-0.4,1.3-0.6
		c0.4-0.2,0.7-0.5,1.1-0.9c0.3-0.4,0.6-0.8,0.9-1.2s0.4-1,0.6-1.7c0.1-0.6,0.2-1.4,0.2-2.1c0-1.5-0.5-2.8-1.5-3.9
		c0.4-1.2,0.4-2.4-0.1-3.8l-0.4,0c-0.3,0-0.7,0.1-1.4,0.3c-0.7,0.2-1.4,0.6-2.2,1.2c-1.2-0.3-2.4-0.5-3.6-0.5
		c-1.3,0-2.5,0.2-3.6,0.5c-0.5-0.4-1-0.6-1.5-0.9S9.2,7.6,8.9,7.5S8.3,7.4,8.1,7.3s-0.4,0-0.5,0s-0.1,0-0.1,0
		C6.9,8.7,6.9,10,7.3,11.2c-1,1.1-1.5,2.4-1.5,3.9c0,0.8,0.1,1.5,0.2,2.1s0.3,1.2,0.6,1.7s0.5,0.9,0.9,1.2c0.3,0.4,0.7,0.7,1.1,0.9
		s0.8,0.4,1.3,0.6s0.9,0.3,1.3,0.4s0.9,0.2,1.4,0.2c-0.8,0.5-1.2,1.4-1.2,2.6v2.3c-0.4-0.1-0.9-0.3-1.3-0.5c-1.5-0.6-2.8-1.5-4-2.7
		c-1.2-1.2-2.1-2.5-2.7-4c-0.7-1.6-1-3.2-1-4.9s0.3-3.4,1-4.9c0.6-1.5,1.5-2.8,2.7-4s2.5-2.1,4-2.7c1.6-0.7,3.2-1,4.9-1
		s3.4,0.3,4.9,1c1.5,0.6,2.8,1.5,4,2.7c1.2,1.2,2.1,2.5,2.7,4c0.7,1.6,1,3.2,1,4.9s-0.3,3.4-1,4.9C26,21.4,25.1,22.8,23.9,23.9z"/>
</g>
</svg>
